{"title":"The.Last.Exorcism.2010.TS.XviD.Feel-Free","uid":5837620,"size":1008428561,"categoryP":"video","categoryS":"movies","magnet":"?xt=urn:btih:09c0ae34e91e2c73d3b1f460b32af6db80bb3129&amp;dn=The.Last.Exorcism.2010.TS.XviD.Feel-Free&amp;tr=udp%3A%2F%2Ftracker.openbittorrent.com%3A80&amp;tr=udp%3A%2F%2Fopen.demonii.com%3A1337&amp;tr=udp%3A%2F%2Ftracker.coppersurfer.tk%3A6969&amp;tr=udp%3A%2F%2Fexodus.desync.com%3A6969","seeders":0,"leechers":0,"uploader":"xenl","files":9,"time":1284790380,"description":"The.Last.Exorcism.2010.TS.XviD.Feel-Free\n\nGenre:Horror | Thriller\nLanguage: English\nIMDB:http://www.imdb.com/title/tt1320244/\nSource:Izgnanie.diavola.2010.D.CAMRip.PROPER/Prism/INK.Thanks\n\nGeneral\nComplete name :The.Last.Exorcism.2010.TS.XviD.Feel-Free\nFormat : AVI\nFormat/Info : Audio Video Interleave\nFile size : 961 MiB\nDuration : 1h 18mn\nOverall bit rate : 1 709 Kbps\nVideo #0\nID : 0\nFormat : MPEG-4 Visual\nFormat profile : AdvancedSimple@L5\nFormat settings, BVOP : Yes\nFormat settings, QPel : No\nFormat settings, GMC : No warppoints\nFormat settings, Matrix : Default (H.263)\nMuxing mode : Packed bitstream\nCodec ID : XVID\nCodec ID/Hint : XviD\nDuration : 1h 18mn\nBit rate : 1 571 Kbps\nWidth : 720 pixels\nHeight : 384 pixels\nDisplay aspect ratio : 1.875\nFrame rate : 25.000 fps\nResolution : 24 bits\nColorimetry : 4:2:0\nScan type : Progressive\nBits/(Pixel*Frame) : 0.227\nStream size : 884 MiB (92%)\nWriting library : XviD 1.2.1 (UTC 2008-12-04)\nAudio #1\nID : 1\nFormat : MPEG Audio\nFormat version : Version 1\nFormat profile : Layer 3\nCodec ID : 55\nCodec ID/Hint : MP3\nDuration : 1h 18mn\nBit rate mode : Constant\nBit rate : 128 Kbps\nChannel(s) : 2 channels\nSampling rate : 44.1 KHz\nResolution : 16 bits\nStream size : 72.0 MiB (7%)\nAlignment : Split accross interleaves\nInterleave, duration : 40 ms (1.00 video frame)\nInterleave, preload duration : 500 ms\n\nPlot\nA troubled evangelical minister agrees to let his last exorcism be filmed by a documentary crew","torrent":{"xt":"urn:btih:09c0ae34e91e2c73d3b1f460b32af6db80bb3129","amp;dn":"The.Last.Exorcism.2010.TS.XviD.Feel-Free","amp;tr":["udp%3A%2F%2Ftracker.openbittorrent.com%3A80","udp%3A%2F%2Fopen.demonii.com%3A1337","udp%3A%2F%2Ftracker.coppersurfer.tk%3A6969","udp%3A%2F%2Fexodus.desync.com%3A6969"],"infoHash":"09c0ae34e91e2c73d3b1f460b32af6db80bb3129","infoHashBuffer":{"type":"Buffer","data":[9,192,174,52,233,30,44,115,211,177,244,96,179,42,246,219,128,187,49,41]},"announce":[],"urlList":[]}}